# xmcd CD database file
#
# Track frame offsets:
#	150
#	18254
#	35217
#	50144
#	67143
#	79508
#	98651
#	113919
#	129957
#	145953
#	164003
#	181265
#
# Disc length: 2612 seconds
#
# Revision: 0
# Processed by: cddbd v1.5PL3 Copyright (c) Steve Scherf et al.
# Submitted via: CDex 1.50beta10
#
DISCID=a70a320c
DTITLE=Kevin Maines - What I Am
DYEAR=2004
DGENRE=Country
TTITLE0=We Don't Have a Prayer
TTITLE1=Pretty Lady
TTITLE2=What I Am
TTITLE3=Just a Southern Thing
TTITLE4=This Much Is True
TTITLE5=The Truth Still Hurts Enough To Lie
TTITLE6=Yours
TTITLE7=Someday, Somewhere, Somebody
TTITLE8=Rhythm and Rhyme
TTITLE9=Five Tiny Holes
TTITLE10=Just Call Me Crazy
TTITLE11=In The Yukon
EXTD=YEAR: 2004
EXTT0=
EXTT1=
EXTT2=
EXTT3=
EXTT4=
EXTT5=
EXTT6=
EXTT7=
EXTT8=
EXTT9=
EXTT10=
EXTT11=
PLAYORDER=
